<svg width="504" height="518" viewBox="0 0 504 518" fill="none" xmlns="http://www.w3.org/2000/svg">
<g opacity="0.5">
<path d="M265.873 176.054C266.395 177.472 266.931 178.919 267.504 180.331L267.505 180.332C280.144 211.293 305.365 235.811 336.734 247.503L336.743 247.506L339.219 248.412V248.413L340.782 248.994V266.029C339.423 266.466 338.082 266.943 336.743 267.432L336.734 267.436C304.099 279.586 278.389 305.266 266.236 337.873C265.717 339.235 265.252 340.579 264.823 341.932H250.619C250.182 340.573 249.705 339.232 249.216 337.893L249.213 337.883L248.632 336.358C236.229 304.445 210.813 279.397 178.711 267.436H178.71C177.369 266.917 176.029 266.451 174.664 266.022V249.25C175.96 248.828 177.237 248.383 178.497 247.942L178.505 247.938L178.515 247.935C182.511 246.477 186.404 244.855 190.167 243.041C192.013 242.159 193.825 241.199 195.589 240.251C195.741 240.185 195.848 240.112 195.902 240.072C197.651 239.114 199.395 238.084 201.103 237.033L201.252 236.941L201.269 236.923C202.998 235.831 204.728 234.688 206.407 233.516C210.691 230.56 214.751 227.284 218.64 223.773L218.648 223.765L218.657 223.757C219.432 223.036 220.206 222.315 220.954 221.621C221.729 220.901 222.489 220.113 223.211 219.391C223.964 218.639 224.671 217.905 225.38 217.115C226.27 216.171 227.155 215.177 228.014 214.24L228.028 214.224L228.041 214.209C228.486 213.696 228.926 213.183 229.361 212.666L230.661 211.104C231.068 210.641 231.447 210.181 231.808 209.743L231.815 209.735L231.821 209.726C232.026 209.469 232.196 209.242 232.367 208.992C232.461 208.878 232.537 208.764 232.598 208.659C233.039 208.106 233.473 207.517 233.847 207.026L233.848 207.025C234.321 206.402 234.857 205.723 235.333 205.027C236.91 202.88 238.375 200.681 239.73 198.486L239.734 198.479L239.739 198.472C241.071 196.26 242.427 194.01 243.677 191.673C245.654 187.99 247.44 184.174 249.009 180.332L249.01 180.331L249.357 179.474C249.841 178.336 250.276 177.2 250.674 176.054H265.873Z" stroke="white" stroke-width="3"/>
<path d="M100.318 283.554C102.355 283.554 104.348 283.588 106.368 283.69L106.379 283.691C120.63 284.311 134.294 287.167 147.063 291.916V291.917C182.738 305.227 211.251 333.26 225.152 368.688H225.14L225.895 370.713C230.438 382.899 233.295 395.978 234.052 409.536L234.053 409.55C234.225 412.203 234.328 414.921 234.328 417.599C234.328 420.29 234.259 422.998 234.054 425.627L234.052 425.656C231.977 461.293 215.962 493.168 191.343 515.974C165.628 496.087 149.054 464.947 149.054 429.921V368.688H87.8574C52.9089 368.688 21.8431 352.19 1.95801 326.555C25.1486 301.5 57.8395 285.29 94.2578 283.691L94.2676 283.69C96.2883 283.588 98.2812 283.554 100.318 283.554ZM415.196 283.52C417.234 283.52 419.261 283.554 421.245 283.656L421.257 283.657C457.669 285.255 490.287 301.428 513.509 326.475C510.723 330.124 507.679 333.576 504.429 336.826C484.753 356.502 457.597 368.654 427.623 368.654H366.356V429.921C366.356 464.94 349.822 496.073 324.087 515.925C299.508 493.152 283.432 461.284 281.358 425.656L281.357 425.646L281.241 423.646C281.14 421.637 281.082 419.606 281.082 417.599C281.082 414.908 281.152 412.199 281.356 409.57L281.358 409.541C282.15 395.944 284.972 382.898 289.515 370.714L289.516 370.715C296.42 352.257 307.274 335.722 321.049 322.142L321.057 322.135L321.083 322.106L321.084 322.107C334.434 308.945 350.525 298.559 368.415 291.884C381.148 287.135 394.848 284.277 409.135 283.657L409.147 283.656C411.132 283.554 413.158 283.52 415.196 283.52ZM321.875 2.47168C326.373 5.74814 330.598 9.35162 334.524 13.3096L334.528 13.3135C354.204 32.9893 366.356 60.1116 366.356 90.1201V151.387H427.588C461.625 151.387 492.019 167.054 511.888 191.538C487.532 216.976 453.214 232.797 415.162 232.797C399.219 232.797 383.925 230.018 369.748 224.932L368.379 224.433C367.831 224.228 367.284 224.02 366.739 223.809V223.808C366.372 223.665 366.004 223.52 365.634 223.372C365.265 223.225 364.896 223.077 364.529 222.927C364.178 222.783 363.831 222.641 363.485 222.496C361.667 221.735 359.87 220.934 358.094 220.097L356.325 219.246L355.542 218.86H355.543C355.283 218.731 355.023 218.601 354.765 218.47C353.302 217.73 351.855 216.963 350.423 216.172C350.079 215.982 349.736 215.791 349.396 215.599C347.126 214.318 344.898 212.974 342.713 211.567C341.984 211.099 341.26 210.623 340.542 210.141C334.794 206.282 329.36 201.991 324.289 197.314C324.078 197.12 323.867 196.924 323.656 196.728C322.711 195.844 321.779 194.947 320.858 194.036L320.204 193.384C318.698 191.873 317.227 190.327 315.794 188.746C315.6 188.532 315.407 188.319 315.216 188.105C313.911 186.648 312.638 185.16 311.397 183.646C310.819 182.939 310.247 182.227 309.684 181.51C309.147 180.826 308.616 180.138 308.092 179.444C307.745 178.984 307.4 178.522 307.06 178.059C304.553 174.648 302.204 171.114 300.023 167.468C299.829 167.143 299.637 166.82 299.447 166.496C298.007 164.041 296.642 161.536 295.356 158.983C295.224 158.72 295.092 158.456 294.962 158.193L294.637 157.531C294.523 157.298 294.41 157.066 294.298 156.833C294.12 156.463 293.944 156.095 293.771 155.727C293.647 155.464 293.524 155.201 293.401 154.936C292.988 154.041 292.585 153.14 292.19 152.234L291.649 150.976L291.295 150.13L290.962 149.32C285.558 136.069 282.219 121.785 281.358 106.812L281.357 106.8L281.242 104.8C281.141 102.791 281.083 100.76 281.083 98.752C281.083 96.0606 281.152 93.3522 281.356 90.7236L281.357 90.71L281.358 90.6953C283.398 56.1311 298.558 25.1225 321.875 2.47168ZM194.375 1.93652C214.739 21.3605 228.931 47.1211 233.872 76.0752L234.104 77.4766C235.205 84.4318 235.79 91.5581 235.79 98.7861C235.79 106.015 235.205 113.142 234.104 120.098C232.486 130.284 229.698 140.058 225.912 149.317L225.911 149.319C211.894 183.738 183.954 211.03 149.089 224.205V224.203L147.089 224.91L145.741 225.386C131.942 230.177 117.152 232.761 101.745 232.761C63.3575 232.761 28.6987 216.574 4.2666 190.696C24.1276 166.721 54.1912 151.385 87.8223 151.385H149.089V90.1543C149.089 53.7877 166.953 21.6123 194.375 1.93652Z" stroke="white" stroke-width="3"/>
</g>
</svg>
