<svg width="144" height="53" viewBox="0 0 144 53" fill="none" xmlns="http://www.w3.org/2000/svg">
<path d="M8.65602 24.6669C7.17689 24.6669 5.75651 24.4922 4.3956 24.143C3.03433 23.7938 1.95699 23.3548 1.16431 22.8252L2.83634 19.2688C3.62939 19.7562 4.56712 20.153 5.6499 20.4595C6.73196 20.7668 7.79878 20.92 8.84929 20.92C10.0068 20.92 10.8267 20.7825 11.3089 20.5075C11.7912 20.2325 12.0324 19.8514 12.0324 19.3644C12.0324 18.9626 11.8445 18.6611 11.4696 18.4595C11.0943 18.2582 10.596 18.1053 9.9745 17.9989C9.35261 17.8933 8.67233 17.7877 7.93259 17.6813C7.19285 17.5757 6.44803 17.4328 5.69777 17.2526C4.94715 17.0732 4.26144 16.8032 3.63991 16.443C3.01802 16.0834 2.51941 15.5964 2.14483 14.9822C1.76952 14.3684 1.58204 13.5745 1.58204 12.6008C1.58204 11.5211 1.89788 10.5686 2.53066 9.74312C3.1627 8.91768 4.07904 8.26664 5.27967 7.79035C6.47994 7.31407 7.91627 7.07593 9.58831 7.07593C10.7668 7.07593 11.9678 7.2027 13.1895 7.45695C14.4115 7.71085 15.4294 8.0815 16.2442 8.56852L14.5721 12.093C13.7359 11.6064 12.8947 11.273 12.0483 11.0928C11.2012 10.9134 10.3814 10.8228 9.58831 10.8228C8.47362 10.8228 7.65918 10.9714 7.14462 11.2676C6.63006 11.5645 6.37297 11.9455 6.37297 12.4107C6.37297 12.8343 6.56044 13.1519 6.93575 13.3632C7.31034 13.5752 7.80894 13.7443 8.43083 13.8714C9.05236 13.9982 9.73299 14.1095 10.4724 14.2048C11.2121 14.3 11.9566 14.4429 12.7072 14.6334C13.4575 14.824 14.1381 15.094 14.7491 15.4431C15.3601 15.7923 15.8584 16.2686 16.2442 16.872C16.63 17.4754 16.8229 18.2643 16.8229 19.2376C16.8229 20.2966 16.5013 21.233 15.8584 22.0477C15.2154 22.8628 14.2879 23.5034 13.0771 23.969C11.8659 24.4341 10.3922 24.6676 8.65602 24.6676V24.6669Z" fill="#1D5197"/>
<path d="M21.7031 30.8266C20.8027 30.8266 19.9128 30.6887 19.0342 30.4141C18.1549 30.139 17.4372 29.758 16.8799 29.2713L18.7126 25.7465C19.0984 26.0849 19.543 26.3499 20.047 26.5404C20.5503 26.7309 21.0489 26.8262 21.5424 26.8262C22.2499 26.8262 22.8123 26.6618 23.2304 26.3341C23.6485 26.0058 24.0289 25.4611 24.372 24.6987L25.2723 22.603L25.6582 22.0633L31.8637 7.3297H36.6869L28.8735 25.4611C28.3158 26.8369 27.6783 27.9166 26.9603 28.7002C26.242 29.483 25.4493 30.0334 24.5808 30.3507C23.7124 30.6683 22.7529 30.8266 21.7031 30.8266ZM24.6613 25.0797L16.9444 7.32935H22.1212L28.1019 21.6182L24.6613 25.0797Z" fill="#1D5197"/>
<path d="M60.8891 7.0752C62.2609 7.0752 63.4774 7.34521 64.5385 7.88488C65.5995 8.42455 66.4353 9.24999 67.0463 10.3616C67.6574 11.4731 67.9627 12.897 67.9627 14.6324V24.4126H62.9466V15.3944C62.9466 14.0186 62.6572 13.0026 62.0785 12.3462C61.4997 11.6901 60.6846 11.3617 59.6348 11.3617C58.9059 11.3617 58.2525 11.5258 57.6734 11.8538C57.0946 12.1822 56.6446 12.6746 56.323 13.3306C56.0013 13.987 55.8407 14.8229 55.8407 15.8392V24.4126H50.8246V15.3944C50.8246 14.0186 50.5403 13.0026 49.9724 12.3462C49.4042 11.6901 48.5948 11.3617 47.5451 11.3617C46.8158 11.3617 46.1624 11.5258 45.5836 11.8538C45.0049 12.1822 44.5549 12.6746 44.2333 13.3306C43.9116 13.987 43.751 14.8229 43.751 15.8392V24.4126H38.7349V7.32945H43.5258V11.997L42.6254 10.6319C43.2252 9.46807 44.0773 8.5839 45.1815 7.98049C46.2853 7.37708 47.5451 7.07555 48.9596 7.07555C50.5457 7.07555 51.9338 7.47234 53.1236 8.26626C54.3133 9.06019 55.1009 10.2724 55.4868 11.9021L53.7183 11.4259C54.297 10.0923 55.2239 9.03369 56.4996 8.25051C57.7749 7.46768 59.2377 7.07555 60.8887 7.07555L60.8891 7.0752Z" fill="#1D5197"/>
<path d="M72.4587 24.4126V0.851562H77.4749V24.4126H72.4587Z" fill="#1D5197"/>
<path d="M90.835 24.6668C88.8627 24.6668 87.1315 24.2858 85.6423 23.5237C84.1523 22.7617 83.0002 21.7192 82.1858 20.396C81.371 19.0731 80.9641 17.5648 80.9641 15.8709C80.9641 14.1563 81.3659 12.6376 82.1698 11.3144C82.9734 9.99151 84.0718 8.95407 85.4653 8.20276C86.8585 7.45145 88.4344 7.07544 90.192 7.07544C91.8851 7.07544 93.4125 7.43033 94.7741 8.13902C96.135 8.84843 97.2123 9.86474 98.0054 11.1876C98.7984 12.5108 99.1948 14.0929 99.1948 15.9347C99.1948 16.1252 99.1839 16.3426 99.1629 16.5854C99.1411 16.8289 99.1197 17.0566 99.0983 17.2683H85.0472V14.3787H96.4617L94.533 15.236C94.533 14.3472 94.3506 13.5744 93.9861 12.918C93.6213 12.2619 93.1176 11.7484 92.4747 11.3778C91.8318 11.0078 91.0812 10.822 90.2243 10.822C89.3674 10.822 88.611 11.0078 87.9572 11.3778C87.3031 11.7484 86.7943 12.2669 86.4299 12.9337C86.0651 13.6005 85.8834 14.3894 85.8834 15.2994V16.0614C85.8834 16.9932 86.0923 17.8133 86.5104 18.5224C86.9285 19.2318 87.5177 19.7714 88.2789 20.1417C89.0396 20.5124 89.9346 20.6975 90.9637 20.6975C91.8851 20.6975 92.6941 20.56 93.3911 20.2846C94.0877 20.0096 94.7255 19.597 95.3042 19.0463L97.9728 21.904C97.1793 22.7932 96.1825 23.4757 94.9826 23.952C93.7816 24.4283 92.3993 24.6668 90.835 24.6668Z" fill="#1D5197"/>
<path d="M108.376 24.6669C106.897 24.6669 105.477 24.4922 104.116 24.143C102.754 23.7938 101.677 23.3548 100.885 22.8252L102.556 19.2688C103.349 19.7562 104.287 20.153 105.37 20.4595C106.452 20.7668 107.519 20.92 108.569 20.92C109.727 20.92 110.547 20.7825 111.029 20.5075C111.511 20.2325 111.752 19.8514 111.752 19.3644C111.752 18.9626 111.564 18.6611 111.189 18.4595C110.814 18.2582 110.316 18.1053 109.694 17.9989C109.072 17.8933 108.392 17.7877 107.652 17.6813C106.913 17.5757 106.168 17.4328 105.418 17.2526C104.667 17.0732 103.981 16.8032 103.36 16.443C102.738 16.0834 102.24 15.5964 101.865 14.9822C101.49 14.3684 101.302 13.5745 101.302 12.6008C101.302 11.5211 101.618 10.5686 102.251 9.74312C102.883 8.91768 103.799 8.26664 105 7.79035C106.2 7.31407 107.636 7.07593 109.308 7.07593C110.487 7.07593 111.688 7.2027 112.91 7.45695C114.131 7.71085 115.149 8.0815 115.964 8.56852L114.292 12.093C113.456 11.6064 112.615 11.273 111.768 11.0928C110.921 10.9134 110.101 10.8228 109.309 10.8228C108.194 10.8228 107.379 10.9714 106.865 11.2676C106.351 11.5645 106.093 11.9455 106.093 12.4107C106.093 12.8343 106.281 13.1519 106.656 13.3632C107.031 13.5752 107.529 13.7443 108.151 13.8714C108.773 13.9982 109.454 14.1095 110.193 14.2048C110.933 14.3 111.677 14.4429 112.428 14.6334C113.178 14.824 113.858 15.094 114.469 15.4431C115.081 15.7923 115.579 16.2686 115.965 16.872C116.35 17.4754 116.544 18.2643 116.544 19.2376C116.544 20.2966 116.222 21.233 115.579 22.0477C114.936 22.8628 114.008 23.5034 112.798 23.969C111.586 24.4341 110.113 24.6676 108.377 24.6676L108.376 24.6669Z" fill="#1D5197"/>
<path d="M125.419 24.6669C123.94 24.6669 122.52 24.4922 121.159 24.143C119.797 23.7938 118.72 23.3548 117.928 22.8252L119.599 19.2688C120.392 19.7562 121.33 20.153 122.413 20.4595C123.495 20.7668 124.562 20.92 125.612 20.92C126.77 20.92 127.59 20.7825 128.072 20.5075C128.554 20.2325 128.795 19.8514 128.795 19.3644C128.795 18.9626 128.607 18.6611 128.233 18.4595C127.857 18.2582 127.359 18.1053 126.738 17.9989C126.115 17.8933 125.435 17.7877 124.696 17.6813C123.956 17.5757 123.211 17.4328 122.461 17.2526C121.711 17.0732 121.024 16.8032 120.403 16.443C119.781 16.0834 119.283 15.5964 118.908 14.9822C118.533 14.3684 118.345 13.5745 118.345 12.6008C118.345 11.5211 118.661 10.5686 119.294 9.74312C119.926 8.91768 120.842 8.26664 122.043 7.79035C123.243 7.31407 124.679 7.07593 126.351 7.07593C127.53 7.07593 128.731 7.2027 129.953 7.45695C131.175 7.71085 132.192 8.0815 133.008 8.56852L131.336 12.093C130.499 11.6064 129.658 11.273 128.811 11.0928C127.964 10.9134 127.144 10.8228 126.352 10.8228C125.237 10.8228 124.423 10.9714 123.908 11.2676C123.394 11.5645 123.136 11.9455 123.136 12.4107C123.136 12.8343 123.324 13.1519 123.699 13.3632C124.074 13.5752 124.572 13.7443 125.194 13.8714C125.816 13.9982 126.497 14.1095 127.236 14.2048C127.976 14.3 128.72 14.4429 129.471 14.6334C130.221 14.824 130.902 15.094 131.513 15.4431C132.124 15.7923 132.622 16.2686 133.008 16.872C133.393 17.4754 133.587 18.2643 133.587 19.2376C133.587 20.2966 133.265 21.233 132.622 22.0477C131.979 22.8628 131.052 23.5034 129.841 23.969C128.629 24.4341 127.156 24.6676 125.42 24.6676L125.419 24.6669Z" fill="#1D5197"/>
<path d="M49.014 34.5552C50.3858 34.5552 51.6129 34.8252 52.6957 35.3649C53.7777 35.9049 54.6299 36.7304 55.2518 37.8419C55.8733 38.9535 56.1841 40.377 56.1841 42.1127V51.893H51.168V42.8748C51.168 41.4989 50.8626 40.483 50.2516 39.8266C49.6406 39.1705 48.7776 38.8421 47.6633 38.8421C46.8698 38.8421 46.1573 39.0061 45.5253 39.3342C44.8928 39.6626 44.3997 40.1653 44.0461 40.8425C43.6922 41.5204 43.5156 42.3878 43.5156 43.4463V51.8927H38.4995V28.3313H43.5156V39.5404L42.3901 38.1116C43.0116 36.9689 43.9011 36.0904 45.0589 35.4763C46.2164 34.8625 47.5349 34.5556 49.0137 34.5556L49.014 34.5552Z" fill="#01BDF9"/>
<path d="M69.5673 52.1467C67.595 52.1467 65.8642 51.766 64.3746 51.0039C62.8846 50.2415 61.7321 49.1994 60.9181 47.8762C60.1029 46.5537 59.696 45.0454 59.696 43.3512C59.696 41.6365 60.0978 40.1178 60.9018 38.7946C61.7057 37.4714 62.8041 36.4343 64.1976 35.6826C65.5908 34.9313 67.1664 34.5557 68.9243 34.5557C70.6174 34.5557 72.1448 34.9102 73.5064 35.6196C74.8673 36.3287 75.9446 37.345 76.7377 38.6678C77.5307 39.991 77.9271 41.5732 77.9271 43.4153C77.9271 43.6058 77.9162 43.8231 77.8952 44.0659C77.8734 44.3098 77.852 44.5372 77.8306 44.7485H63.7795V41.8593H75.194L73.2652 42.7166C73.2652 41.8278 73.0829 41.055 72.7184 40.3986C72.3536 39.7425 71.8499 39.229 71.2074 38.8583C70.5645 38.4884 69.8138 38.3025 68.9566 38.3025C68.0994 38.3025 67.3433 38.4884 66.6899 38.8583C66.0357 39.229 65.5266 39.7475 65.1625 40.4143C64.7977 41.0811 64.6157 41.87 64.6157 42.78V43.542C64.6157 44.4738 64.8249 45.2939 65.2427 46.0029C65.6604 46.7124 66.25 47.252 67.0108 47.6223C67.7716 47.9926 68.6669 48.1781 69.6956 48.1781C70.617 48.1781 71.4264 48.0406 72.123 47.7652C72.8196 47.4902 73.4574 47.0776 74.0362 46.5269L76.7047 49.3846C75.9113 50.2734 74.9144 50.9563 73.7145 51.4326C72.5135 51.9089 71.1309 52.147 69.5665 52.147L69.5673 52.1467Z" fill="#01BDF9"/>
<path d="M86.2636 52.1466C84.9132 52.1466 83.7557 51.9189 82.7912 51.4641C81.8266 51.0093 81.0869 50.3901 80.5727 49.6066C80.0581 48.8234 79.801 47.9446 79.801 46.9709C79.801 45.9549 80.0523 45.0658 80.5564 44.3037C81.06 43.5417 81.8589 42.9436 82.9518 42.5096C84.0451 42.0759 85.4702 41.8589 87.2282 41.8589H91.8262V44.7481H87.775C86.5958 44.7481 85.7864 44.9386 85.3473 45.32C84.9078 45.7007 84.6884 46.1773 84.6884 46.7489C84.6884 47.3838 84.9401 47.8869 85.4441 48.2572C85.9474 48.6275 86.6386 48.813 87.5179 48.813C88.3541 48.813 89.104 48.6175 89.7687 48.2254C90.433 47.8336 90.9153 47.2567 91.2155 46.4946L91.9872 48.7811C91.6224 49.882 90.9584 50.7178 89.9939 51.2897C89.0293 51.8612 87.7855 52.147 86.264 52.147L86.2636 52.1466ZM91.5368 51.8927V48.5584L91.2152 47.8282V41.8585C91.2152 40.8 90.8881 39.9745 90.2347 39.3815C89.5805 38.7892 88.5789 38.4927 87.2282 38.4927C86.3064 38.4927 85.4006 38.6356 84.5114 38.9213C83.6216 39.2071 82.8659 39.5935 82.2444 40.0802L80.4439 36.6191C81.3868 35.963 82.5225 35.4552 83.8518 35.095C85.1808 34.7351 86.5312 34.5549 87.9034 34.5549C90.54 34.5549 92.5866 35.1691 94.0447 36.3967C95.5024 37.625 96.2313 39.5402 96.2313 42.1443V51.8927H91.5368Z" fill="#01BDF9"/>
<path d="M100.87 51.8927V28.3313H105.886V51.8927H100.87Z" fill="#01BDF9"/>
<path d="M109.691 39.0007V35.1901H121.684V39.0007H109.691ZM118.823 52.1465C116.786 52.1465 115.2 51.6333 114.064 50.6066C112.928 49.5799 112.36 48.0501 112.36 46.0182V31.0303H117.376V45.9548C117.376 46.6746 117.569 47.2304 117.955 47.6218C118.34 48.0135 118.866 48.2091 119.53 48.2091C120.324 48.2091 120.998 47.9978 121.556 47.5742L122.907 51.0671C122.392 51.4274 121.776 51.6974 121.058 51.8772C120.339 52.0566 119.595 52.1468 118.823 52.1468L118.823 52.1465Z" fill="#01BDF9"/>
<path d="M136.406 34.5552C137.777 34.5552 139.005 34.8252 140.087 35.3649C141.169 35.9049 142.021 36.7304 142.643 37.8419C143.265 38.9535 143.576 40.377 143.576 42.1127V51.893H138.56V42.8748C138.56 41.4989 138.254 40.483 137.643 39.8266C137.032 39.1705 136.17 38.8421 135.055 38.8421C134.261 38.8421 133.549 39.0061 132.917 39.3342C132.284 39.6626 131.791 40.1653 131.438 40.8425C131.084 41.5204 130.907 42.3878 130.907 43.4463V51.8927H125.891V28.3313H130.907V39.5404L129.782 38.1116C130.403 36.9689 131.293 36.0904 132.45 35.4763C133.608 34.8625 134.926 34.5556 136.405 34.5556L136.406 34.5552Z" fill="#01BDF9"/>
</svg>
