<svg width="269" height="100" viewBox="0 0 269 100" fill="none" xmlns="http://www.w3.org/2000/svg">
<g clip-path="url(#clip0_2097_599)">
<path d="M16.165 46.5463C13.4034 46.5463 10.7515 46.2165 8.21067 45.5577C5.66913 44.899 3.6577 44.0706 2.17773 43.0713L5.29948 36.3611C6.78012 37.2807 8.5309 38.0294 10.5525 38.6077C12.5727 39.1875 14.5645 39.4767 16.5258 39.4767C18.6869 39.4767 20.2176 39.2172 21.1181 38.6983C22.0185 38.1794 22.4687 37.4604 22.4687 36.5415C22.4687 35.7834 22.118 35.2145 21.418 34.8341C20.7173 34.4544 19.7871 34.1659 18.6266 33.9652C17.4655 33.7659 16.1955 33.5665 14.8143 33.3659C13.4332 33.1665 12.0426 32.8969 10.6419 32.5571C9.24042 32.2186 7.96017 31.7091 6.79976 31.0294C5.63867 30.351 4.70776 29.4321 4.0084 28.2733C3.30768 27.1152 2.95766 25.6172 2.95766 23.78C2.95766 21.7429 3.54735 19.9456 4.72875 18.3881C5.9088 16.8307 7.61963 15.6023 9.86125 14.7037C12.1022 13.805 14.7839 13.3557 17.9056 13.3557C20.1059 13.3557 22.3482 13.5949 24.6291 14.0746C26.9107 14.5537 28.8111 15.253 30.3323 16.1719L27.2106 22.8219C25.6494 21.9037 24.0787 21.2746 22.4985 20.9348C20.917 20.5963 19.3863 20.4253 17.9056 20.4253C15.8244 20.4253 14.3039 20.7057 13.3432 21.2645C12.3825 21.8246 11.9025 22.5435 11.9025 23.4213C11.9025 24.2206 12.2525 24.8199 12.9532 25.2186C13.6526 25.6186 14.5835 25.9375 15.7446 26.1773C16.905 26.4165 18.1757 26.6267 19.5562 26.8064C20.9373 26.9861 22.3272 27.2557 23.7287 27.6152C25.1294 27.9746 26.4002 28.4841 27.541 29.1429C28.6818 29.8017 29.612 30.7003 30.3323 31.8388C31.0527 32.9773 31.4129 34.4658 31.4129 36.3023C31.4129 38.3003 30.8123 40.0672 29.612 41.6044C28.4116 43.1422 26.6798 44.351 24.4192 45.2294C22.158 46.1071 19.4066 46.5476 16.165 46.5476V46.5463Z" fill="white"/>
<path d="M40.5241 58.1672C38.8431 58.1672 37.1816 57.9071 35.5412 57.3888C33.8994 56.8699 32.5596 56.151 31.519 55.2328L34.9407 48.5821C35.6611 49.2206 36.4911 49.7206 37.4321 50.0801C38.3718 50.4395 39.3028 50.6193 40.2242 50.6193C41.545 50.6193 42.5951 50.3091 43.3757 49.6909C44.1563 49.0713 44.8665 48.0436 45.507 46.6051L47.188 42.651L47.9084 41.6328L59.4942 13.8334H68.4993L53.9115 48.0436C52.8703 50.6395 51.68 52.6767 50.3395 54.1551C48.9984 55.6321 47.5184 56.6706 45.8969 57.2692C44.2755 57.8686 42.4841 58.1672 40.5241 58.1672ZM46.0472 47.324L31.6396 13.8328H41.3047L52.4708 40.7929L46.0472 47.324Z" fill="white"/>
<path d="M113.686 13.3523C116.247 13.3523 118.519 13.8618 120.5 14.88C122.481 15.8982 124.041 17.4557 125.182 19.553C126.323 21.6503 126.893 24.3368 126.893 27.6111V46.0645H117.528V29.0489C117.528 26.453 116.987 24.5361 115.907 23.2976C114.826 22.0597 113.304 21.4401 111.345 21.4401C109.984 21.4401 108.764 21.7496 107.682 22.3685C106.602 22.9881 105.762 23.9172 105.161 25.155C104.561 26.3935 104.261 27.9705 104.261 29.8881V46.0645H94.8956V29.0489C94.8956 26.453 94.3648 24.5361 93.3046 23.2976C92.2437 22.0597 90.7326 21.4401 88.7726 21.4401C87.4111 21.4401 86.1912 21.7496 85.1106 22.3685C84.0301 22.9881 83.1899 23.9172 82.5894 25.155C81.9889 26.3935 81.689 27.9705 81.689 29.8881V46.0645H72.3237V13.832H81.2685V22.6388L79.5875 20.0631C80.7073 17.8672 82.2983 16.1989 84.3598 15.0604C86.4207 13.9219 88.7726 13.353 91.4137 13.353C94.375 13.353 96.9666 14.1016 99.1879 15.5996C101.409 17.0976 102.88 19.3847 103.6 22.4597L100.298 21.5611C101.379 19.0449 103.109 17.0476 105.491 15.5699C107.872 14.0928 110.603 13.353 113.686 13.353L113.686 13.3523Z" fill="white"/>
<path d="M135.288 46.0661V1.61133H144.653V46.0661H135.288Z" fill="white"/>
<path d="M169.595 46.5469C165.912 46.5469 162.68 45.828 159.9 44.3902C157.118 42.9523 154.967 40.9854 153.446 38.4888C151.925 35.9929 151.166 33.1469 151.166 29.951C151.166 26.7158 151.916 23.8503 153.417 21.3537C154.917 18.8577 156.968 16.9003 159.569 15.4827C162.171 14.0652 165.113 13.3557 168.394 13.3557C171.555 13.3557 174.407 14.0253 176.949 15.3625C179.49 16.701 181.501 18.6186 182.982 21.1145C184.463 23.6111 185.203 26.5963 185.203 30.0713C185.203 30.4307 185.182 30.8408 185.143 31.299C185.103 31.7584 185.063 32.1881 185.023 32.5875H158.789V27.1354H180.1L176.499 28.753C176.499 27.076 176.158 25.6179 175.478 24.3794C174.797 23.1415 173.857 22.1726 172.656 21.4733C171.456 20.7753 170.054 20.4246 168.455 20.4246C166.855 20.4246 165.443 20.7753 164.222 21.4733C163.001 22.1726 162.051 23.151 161.37 24.4091C160.689 25.6672 160.35 27.1557 160.35 28.8726V30.3104C160.35 32.0686 160.74 33.6158 161.521 34.9537C162.301 36.2922 163.401 37.3104 164.822 38.0091C166.243 38.7084 167.914 39.0577 169.835 39.0577C171.555 39.0577 173.066 38.7983 174.367 38.2787C175.668 37.7598 176.858 36.9814 177.939 35.9422L182.921 41.3341C181.44 43.0118 179.579 44.2996 177.338 45.1983C175.096 46.0969 172.515 46.5469 169.595 46.5469Z" fill="white"/>
<path d="M202.346 46.5463C199.584 46.5463 196.933 46.2165 194.391 45.5577C191.849 44.899 189.838 44.0706 188.358 43.0713L191.479 36.3611C192.96 37.2807 194.711 38.0294 196.732 38.6077C198.753 39.1875 200.745 39.4767 202.706 39.4767C204.867 39.4767 206.398 39.2172 207.298 38.6983C208.198 38.1794 208.649 37.4604 208.649 36.5415C208.649 35.7834 208.297 35.2145 207.598 34.8341C206.897 34.4544 205.967 34.1659 204.807 33.9652C203.645 33.7659 202.375 33.5665 200.994 33.3659C199.614 33.1665 198.223 32.8969 196.823 32.5571C195.421 32.2186 194.14 31.7091 192.98 31.0294C191.819 30.351 190.888 29.4321 190.188 28.2733C189.488 27.1152 189.138 25.6172 189.138 23.78C189.138 21.7429 189.728 19.9456 190.909 18.3881C192.089 16.8307 193.8 15.6023 196.041 14.7037C198.283 13.805 200.964 13.3557 204.086 13.3557C206.287 13.3557 208.528 13.5949 210.81 14.0746C213.091 14.5537 214.991 15.253 216.513 16.1719L213.391 22.8219C211.83 21.9037 210.259 21.2746 208.679 20.9348C207.097 20.5963 205.566 20.4253 204.086 20.4253C202.005 20.4253 200.485 20.7057 199.525 21.2645C198.564 21.8246 198.083 22.5435 198.083 23.4213C198.083 24.2206 198.434 24.8199 199.134 25.2186C199.834 25.6186 200.764 25.9375 201.925 26.1773C203.086 26.4165 204.357 26.6267 205.738 26.8064C207.119 26.9861 208.509 27.2557 209.91 27.6152C211.31 27.9746 212.581 28.4841 213.722 29.1429C214.863 29.8017 215.793 30.7003 216.514 31.8388C217.233 32.9773 217.594 34.4658 217.594 36.3023C217.594 38.3003 216.994 40.0672 215.793 41.6044C214.593 43.1422 212.861 44.351 210.601 45.2294C208.339 46.1071 205.588 46.5476 202.346 46.5476L202.346 46.5463Z" fill="white"/>
<path d="M234.165 46.5463C231.404 46.5463 228.753 46.2165 226.211 45.5577C223.669 44.899 221.658 44.0706 220.178 43.0713L223.299 36.3611C224.78 37.2807 226.531 38.0294 228.552 38.6077C230.573 39.1875 232.564 39.4767 234.526 39.4767C236.687 39.4767 238.217 39.2172 239.118 38.6983C240.018 38.1794 240.469 37.4604 240.469 36.5415C240.469 35.7834 240.117 35.2145 239.418 34.8341C238.717 34.4544 237.787 34.1659 236.626 33.9652C235.465 33.7659 234.195 33.5665 232.814 33.3659C231.434 33.1665 230.042 32.8969 228.642 32.5571C227.241 32.2186 225.96 31.7091 224.8 31.0294C223.638 30.351 222.708 29.4321 222.008 28.2733C221.308 27.1152 220.957 25.6172 220.957 23.78C220.957 21.7429 221.548 19.9456 222.729 18.3881C223.909 16.8307 225.619 15.6023 227.861 14.7037C230.103 13.805 232.784 13.3557 235.905 13.3557C238.106 13.3557 240.348 13.5949 242.63 14.0746C244.91 14.5537 246.811 15.253 248.333 16.1719L245.211 22.8219C243.65 21.9037 242.079 21.2746 240.498 20.9348C238.917 20.5963 237.386 20.4253 235.906 20.4253C233.825 20.4253 232.304 20.7057 231.344 21.2645C230.384 21.8246 229.903 22.5435 229.903 23.4213C229.903 24.2206 230.254 24.8199 230.954 25.2186C231.654 25.6186 232.584 25.9375 233.745 26.1773C234.905 26.4165 236.177 26.6267 237.557 26.8064C238.938 26.9861 240.328 27.2557 241.73 27.6152C243.13 27.9746 244.401 28.4841 245.541 29.1429C246.683 29.8017 247.613 30.7003 248.333 31.8388C249.053 32.9773 249.414 34.4658 249.414 36.3023C249.414 38.3003 248.814 40.0672 247.613 41.6044C246.413 43.1422 244.681 44.351 242.42 45.2294C240.158 46.1071 237.408 46.5476 234.166 46.5476L234.165 46.5463Z" fill="white"/>
<path d="M91.5079 65.2015C94.069 65.2015 96.3601 65.711 98.3817 66.7292C100.402 67.7481 101.993 69.3055 103.154 71.4028C104.314 73.5001 104.895 76.186 104.895 79.461V97.9143H95.5294V80.8988C95.5294 78.3028 94.9593 76.386 93.8185 75.1474C92.6777 73.9096 91.0664 73.29 88.986 73.29C87.5046 73.29 86.1743 73.5995 84.9942 74.2184C83.8135 74.838 82.8928 75.7866 82.2327 77.0643C81.5719 78.3434 81.2422 79.9799 81.2422 81.9772V97.9137H71.877V53.4583H81.2422V74.6076L79.1407 71.9116C80.3011 69.7556 81.9619 68.0981 84.1236 66.9393C86.2846 65.7812 88.7463 65.2022 91.5072 65.2022L91.5079 65.2015Z" fill="#01BDF9"/>
<path d="M129.882 98.3932C126.199 98.3932 122.968 97.6749 120.187 96.2371C117.405 94.7986 115.253 92.8324 113.733 90.3357C112.211 87.8405 111.452 84.9945 111.452 81.7979C111.452 78.5628 112.202 75.6972 113.703 73.2006C115.204 70.704 117.254 68.7472 119.856 67.329C122.457 65.9114 125.399 65.2026 128.681 65.2026C131.842 65.2026 134.694 65.8716 137.236 67.2101C139.777 68.5479 141.788 70.4655 143.269 72.9614C144.75 75.458 145.49 78.4432 145.49 81.9189C145.49 82.2783 145.469 82.6884 145.43 83.1466C145.389 83.6067 145.349 84.0357 145.309 84.4344H119.076V78.983H140.387L136.786 80.6006C136.786 78.9236 136.445 77.4655 135.765 76.227C135.084 74.9891 134.143 74.0202 132.944 73.3209C131.743 72.6229 130.342 72.2722 128.741 72.2722C127.141 72.2722 125.729 72.6229 124.509 73.3209C123.288 74.0202 122.337 74.9986 121.658 76.2567C120.977 77.5148 120.637 79.0033 120.637 80.7202V82.158C120.637 83.9161 121.027 85.4634 121.807 86.8013C122.587 88.1398 123.688 89.158 125.109 89.8567C126.529 90.5553 128.2 90.9053 130.121 90.9053C131.842 90.9053 133.353 90.6459 134.653 90.1263C135.954 89.6074 137.145 88.829 138.225 87.7898L143.207 93.1817C141.726 94.8587 139.865 96.1472 137.625 97.0459C135.382 97.9445 132.801 98.3938 129.88 98.3938L129.882 98.3932Z" fill="#01BDF9"/>
<path d="M161.053 98.3914C158.532 98.3914 156.371 97.9616 154.57 97.1035C152.769 96.2454 151.388 95.0772 150.428 93.5988C149.467 92.1211 148.987 90.463 148.987 88.6258C148.987 86.7089 149.456 85.0312 150.398 83.5934C151.338 82.1555 152.829 81.0272 154.87 80.2082C156.911 79.39 159.572 78.9805 162.854 78.9805H171.439V84.4319H163.875C161.673 84.4319 160.162 84.7914 159.342 85.511C158.522 86.2292 158.112 87.1285 158.112 88.2069C158.112 89.4049 158.582 90.3542 159.523 91.0528C160.463 91.7515 161.753 92.1015 163.395 92.1015C164.956 92.1015 166.356 91.7326 167.597 90.9927C168.838 90.2535 169.738 89.165 170.299 87.7272L171.739 92.0414C171.058 94.1184 169.819 95.6954 168.018 96.7745C166.217 97.8528 163.895 98.392 161.054 98.392L161.053 98.3914ZM170.898 97.9123V91.6211L170.298 90.2434V78.9799C170.298 76.9826 169.687 75.4251 168.467 74.3062C167.246 73.1887 165.376 72.6292 162.854 72.6292C161.133 72.6292 159.442 72.8988 157.782 73.438C156.12 73.9772 154.709 74.7062 153.549 75.6245L150.188 69.0941C151.948 67.8562 154.068 66.8981 156.55 66.2184C159.032 65.5393 161.553 65.1995 164.115 65.1995C169.037 65.1995 172.858 66.3583 175.581 68.6745C178.302 70.992 179.663 74.6055 179.663 79.5191V97.9123H170.898Z" fill="#01BDF9"/>
<path d="M188.325 97.9137V53.4583H197.69V97.9137H188.325Z" fill="#01BDF9"/>
<path d="M204.795 73.5908V66.4009H227.187V73.5908H204.795ZM221.844 98.3941C218.042 98.3941 215.081 97.4259 212.96 95.4887C210.838 93.5516 209.778 90.6651 209.778 86.8313V58.5522H219.143V86.7117C219.143 88.0698 219.503 89.1185 220.224 89.857C220.944 90.5962 221.925 90.9651 223.166 90.9651C224.646 90.9651 225.906 90.5664 226.948 89.7671L229.469 96.3577C228.509 97.0374 227.358 97.5468 226.017 97.886C224.676 98.2245 223.286 98.3948 221.845 98.3948L221.844 98.3941Z" fill="#01BDF9"/>
<path d="M254.671 65.2015C257.231 65.2015 259.523 65.711 261.544 66.7292C263.564 67.7481 265.155 69.3055 266.317 71.4028C267.477 73.5001 268.058 76.186 268.058 79.461V97.9143H258.692V80.8988C258.692 78.3028 258.122 76.386 256.982 75.1474C255.841 73.9096 254.23 73.29 252.149 73.29C250.668 73.29 249.337 73.5995 248.157 74.2184C246.977 74.838 246.056 75.7866 245.396 77.0643C244.735 78.3434 244.405 79.9799 244.405 81.9772V97.9137H235.04V53.4583H244.405V74.6076L242.304 71.9116C243.464 69.7556 245.126 68.0981 247.286 66.9393C249.447 65.7812 251.909 65.2022 254.67 65.2022L254.671 65.2015Z" fill="#01BDF9"/>
</g>
<defs>
<clipPath id="clip0_2097_599">
<rect width="268.852" height="100" fill="white"/>
</clipPath>
</defs>
</svg>
