<svg width="40" height="40" viewBox="0 0 40 40" fill="none" xmlns="http://www.w3.org/2000/svg">
<g clip-path="url(#clip0_64_86)">
<path d="M36.5133 12.9412V8.23529C36.5133 3.69435 32.819 0 28.278 0H27.1016V17.6471V20V35.2941C27.1016 37.8889 29.2126 40 31.8074 40C34.4023 40 36.5133 37.8889 36.5133 35.2941V21.4902C36.5133 19.8992 35.5415 18.5311 34.1604 17.9478V12.9412H36.5133ZM29.4545 2.47114C32.1362 3.01773 34.1604 5.39467 34.1604 8.23529V10.5882H31.8074V17.6471H29.4545V2.47114ZM32.6702 20C33.4919 20 34.1604 20.6685 34.1604 21.4902V22.3529H29.4545V20H32.6702ZM29.4545 24.7059H34.1604V27.0588H29.4545V24.7059ZM31.8074 37.6471C30.51 37.6471 29.4545 36.5915 29.4545 35.2941V29.4118H34.1604V35.2941C34.1604 36.5915 33.1049 37.6471 31.8074 37.6471Z" fill="#3359A4"/>
<path d="M18.7511 0.354736L16.6288 1.37074L19.9569 8.32281L12.9841 30.2376L6.01119 8.32281L9.33935 1.37074L7.21699 0.354736L3.48633 8.14776L10.3169 29.6154C6.93025 28.6489 3.57229 31.2086 3.57229 34.7059C3.57229 37.6251 5.94719 40 8.86641 40C10.5281 40 12.0128 39.2298 12.9841 38.0283C13.9553 39.2298 15.44 40 17.1017 40C20.0209 40 22.3958 37.6251 22.3958 34.7059C22.3958 31.2114 19.0411 28.6479 15.6511 29.6154L22.4818 8.14783L18.7511 0.354736ZM8.86641 37.647C7.2446 37.647 5.92523 36.3277 5.92523 34.7059C5.92523 33.0841 7.2446 31.7647 8.86641 31.7647C10.073 31.7647 11.1117 32.4953 11.5647 33.537L11.7463 34.1076C11.7863 34.3009 11.8076 34.5009 11.8076 34.7059C11.8076 36.3277 10.4882 37.647 8.86641 37.647ZM17.1017 31.7647C18.7235 31.7647 20.0429 33.0841 20.0429 34.7059C20.0429 36.3277 18.7235 37.647 17.1017 37.647C15.2467 37.647 13.8422 35.9376 14.2219 34.1076L14.4033 33.5371C14.8564 32.4953 15.8951 31.7647 17.1017 31.7647Z" fill="#3359A4"/>
</g>
<defs>
<clipPath id="clip0_64_86">
<rect width="40" height="40" fill="white"/>
</clipPath>
</defs>
</svg>
