<svg width="40" height="40" viewBox="0 0 40 40" fill="none" xmlns="http://www.w3.org/2000/svg">
<path d="M39.9958 16.6124C39.8736 11.1995 36.3592 6.61758 30.7459 6.27359H22.96C21.8116 6.27359 20.8772 5.33992 20.8772 4.19219V0H9.53875C6.99539 0 4.92625 2.06852 4.92625 4.61102V5.82555C3.02055 6.03828 1.53375 7.65836 1.53375 9.61992V20.4545H0V22.7982H4.86633V26.2417H7.21008V22.7982H12.0764V20.4545H10.5427V9.61992C10.5427 7.69969 9.11773 6.10664 7.26992 5.84086V4.61109C7.26992 3.36086 8.28766 2.34383 9.53867 2.34383H13.8248V4.19227C13.8248 8.85555 17.3402 12.7137 21.8609 13.2582C21.7103 13.9455 21.6419 14.6538 21.6566 15.3769C21.7051 17.7652 20.5356 19.9655 18.5284 21.2626C17.1672 22.1421 16.0938 23.3373 15.3888 24.7496C12.9066 24.8286 10.584 25.8314 8.81828 27.5936C6.97352 29.4348 5.9575 31.884 5.9575 34.4898V40H13.0098V34.4898C13.0098 33.7693 13.2908 33.092 13.8009 32.583C14.1434 32.2412 14.5612 32.0027 15.0172 31.8831C15.7673 33.9098 17.2145 35.5648 19.1716 36.6081C21.7944 38.0893 24.5466 38.346 27.3521 37.3711C29.667 36.5668 31.9823 34.8973 34.0473 32.543C35.7038 30.6549 37.1322 28.3968 37.9665 26.3477C38.7623 24.393 40.0842 20.5291 39.9958 16.6124ZM3.8775 20.4545V12.8324H8.19891V20.4545H3.8775ZM8.19891 9.61992V10.4887H3.8775V9.61992C3.8775 8.80664 4.53922 8.14492 5.3525 8.14492H6.72398C7.53727 8.14492 8.19891 8.80664 8.19891 9.61992ZM35.7959 25.4639C34.5582 28.5036 31.0834 33.5935 26.583 35.1572C24.4373 35.9028 22.3277 35.7021 20.313 34.5611C18.3471 33.5314 17.1424 31.6033 16.773 29.4526L15.7147 29.4509C15.7121 29.4509 15.7096 29.4509 15.707 29.4509C14.3619 29.4509 13.0973 29.9739 12.1452 30.9241C11.1914 31.8761 10.6661 33.1424 10.6661 34.4898V37.6562H8.30125V34.4898C8.30125 32.5109 9.07289 30.6509 10.4741 29.2525C11.8723 27.8569 13.7307 27.0883 15.7066 27.0883L16.9535 27.0902C17.4605 25.5414 18.4178 24.1245 19.8005 23.231C21.113 22.383 22.1944 21.2055 22.9275 19.8258C23.6608 18.4462 24.0316 16.8913 23.9999 15.3292C23.9859 14.6373 24.0745 13.9657 24.2627 13.3238H28.166C29.1478 13.3238 29.9438 14.1198 29.9438 15.1016V17.8407C29.9438 18.8134 29.6649 19.9156 29.1741 20.9072L24.5677 23.8027C22.5902 25.1686 22.478 28.2605 24.5138 29.6777C26.253 30.8963 28.5241 30.2347 29.581 28.5757C29.8201 28.2005 29.9784 27.7795 30.0711 27.3443L31.1808 22.1307C31.8948 20.762 32.2875 19.2457 32.2875 17.8406V15.1002C32.2875 12.8247 30.4428 10.9801 28.1673 10.9801H22.96C19.2152 10.9801 16.1687 7.935 16.1687 4.19219V2.34375H18.5334V4.19219C18.5334 6.63609 20.5146 8.61734 22.9586 8.61734H30.6853C31.778 8.67656 32.8033 8.94563 33.652 9.39641H33.652C36.2286 10.7646 37.5747 13.2102 37.6527 16.6654C37.7316 20.1588 36.5231 23.6774 35.7959 25.4639ZM28.3448 24.1967L27.7323 27.0745C27.4781 27.8973 26.5169 28.2182 25.8562 27.7565C25.1965 27.295 25.1684 26.2845 25.8524 25.7634L28.3448 24.1967Z" fill="#3359A4"/>
</svg>
