<svg width="31" height="40" viewBox="0 0 31 40" fill="none" xmlns="http://www.w3.org/2000/svg">
<path d="M30.8044 32.6388C30.6641 29.4593 30.4719 25.1048 30.2524 22.7448C30.0274 20.3246 29.398 18.0598 28.4323 16.1953C27.6287 14.6436 26.6072 13.3689 25.386 12.3856H28.8813V5.28992H23.8779V0H13.9094C12.4642 0 11.0986 0.510879 10.0151 1.44461H1.78929V13.5485C1.47831 14.2325 0.673881 16.1715 0.256657 18.7508C-0.371643 22.634 0.159015 26.2976 1.78929 29.4124V39.9999H10.2754V36.7696C11.2064 37.2012 12.1171 37.5642 12.9598 37.8648C17.3782 39.4407 21.7324 39.9999 24.1187 39.9999C26.1141 39.9999 27.8069 39.3331 29.014 38.0716C30.2835 36.7447 30.9027 34.8661 30.8044 32.6388ZM26.5361 7.6352V10.0404H16.7639V7.6352H26.5361ZM11.3407 3.40956C12.0267 2.72326 12.939 2.34528 13.9094 2.34528H21.5327V5.28992H14.4186V10.4843C13.9974 10.6021 13.5337 10.7511 13.0325 10.9404L13.0329 10.9412C12.1397 11.2201 11.2215 11.5638 10.2807 11.9715L10.2778 5.97873C10.2772 5.00834 10.6547 4.09594 11.3407 3.40956ZM4.13457 3.78989H7.93008V12.6385H4.13457V3.78989ZM7.93008 37.6547H4.13457V32.6301C5.26398 33.7761 6.57702 34.7387 7.93008 35.5409V37.6547ZM27.3194 36.4503C26.5654 37.2383 25.4587 37.6547 24.1187 37.6547C19.0276 37.6547 7.98004 35.1292 4.27325 29.0447C2.55151 26.2185 1.9752 22.9053 2.56042 19.1971C2.85757 17.314 3.39596 15.7954 3.72618 14.9837H8.57089V16.1303C8.57089 17.5925 8.2295 18.8299 7.86801 20.14C7.14012 22.7779 6.38752 25.5057 8.73022 29.5288L10.7569 28.3487C8.9108 25.1783 9.44834 23.2302 10.1289 20.7638C10.4979 19.4263 10.9162 17.9102 10.9162 16.1303V14.2538C13.3134 13.1831 15.4062 12.4042 17.83 12.4042C19.8349 12.5464 20.6294 13.5182 21.0582 14.2749C21.8992 15.7589 21.7272 17.8044 20.5468 20.3544C20.2805 20.9297 20.0493 21.4816 19.8514 22.0136C18.679 21.8829 16.8193 22.0925 14.6624 23.8622L16.15 25.6753C17.4417 24.6155 18.4888 24.3454 19.1801 24.3208C18.9498 25.4706 18.9117 26.5271 19.0585 27.5291C19.3226 29.3317 20.1778 30.9597 21.8315 32.808L23.5792 31.2441C21.18 28.5626 20.3814 26.2946 22.6751 21.3395C24.0217 18.4303 24.2837 15.9233 23.4602 13.8719C24.6293 14.6853 25.5997 15.8256 26.3499 17.274C27.178 18.8728 27.72 20.8397 27.9172 22.962C28.1313 25.2653 28.3221 29.5868 28.4614 32.7423C28.5308 34.3147 28.1359 35.5969 27.3194 36.4503Z" fill="#3359A4"/>
</svg>
