<svg width="40" height="40" viewBox="0 0 40 40" fill="none" xmlns="http://www.w3.org/2000/svg">
<g clip-path="url(#clip0_2137_732)">
<path d="M35.2344 0H32.8906V2.34375H28.2031V0H25.8594V2.34375H21.1719V0H18.8281V2.34375H14.1406V0H11.7969V2.34375H7.10938V0H4.76562V2.34375H0V40H40C40 36.5427 40 7.68594 40 2.34375H35.2344V0ZM37.6562 37.6562H2.34375V11.7188H37.6562V37.6562ZM37.6562 4.6875V9.375H2.34375V4.6875H4.76562V7.03125H7.10938V4.6875H11.7969V7.03125H14.1406V4.6875H18.8281V7.03125H21.1719V4.6875H25.8594V7.03125H28.2031V4.6875H32.8906V7.03125H35.2344V4.6875H37.6562Z" fill="#3359A4"/>
<path d="M20 35.3125C25.8155 35.3125 30.5469 30.5462 30.5469 24.6875C30.5469 18.8288 25.8155 14.0625 20 14.0625C14.1845 14.0625 9.45312 18.8288 9.45312 24.6875C9.45312 30.5462 14.1845 35.3125 20 35.3125ZM20 16.4062C24.5232 16.4062 28.2031 20.1212 28.2031 24.6875C28.2031 29.2538 24.5232 32.9688 20 32.9688C15.4768 32.9688 11.7969 29.2538 11.7969 24.6875C11.7969 20.1212 15.4768 16.4062 20 16.4062Z" fill="#3359A4"/>
<path d="M25.5161 23.1723L23.8589 21.5151L18.8281 26.5458L16.1411 23.8589L14.4839 25.5161L18.8281 29.8604L25.5161 23.1723Z" fill="#3359A4"/>
</g>
<defs>
<clipPath id="clip0_2137_732">
<rect width="40" height="40" fill="white"/>
</clipPath>
</defs>
</svg>
