<svg width="34" height="40" viewBox="0 0 34 40" fill="none" xmlns="http://www.w3.org/2000/svg">
<path d="M33.027 12.9412V8.23529C33.027 3.69435 29.3326 0 24.7917 0H23.6152V17.6471V20V35.2941C23.6152 37.8889 25.7263 40 28.3211 40C30.9159 40 33.027 37.8889 33.027 35.2941V21.4902C33.027 19.8992 32.0552 18.5311 30.6741 17.9478V12.9412H33.027ZM25.9682 2.47114C28.6498 3.01773 30.6741 5.39467 30.6741 8.23529V10.5882H28.3211V17.6471H25.9682V2.47114ZM29.1839 20C30.0056 20 30.6741 20.6685 30.6741 21.4902V22.3529H25.9682V20H29.1839ZM25.9682 24.7059H30.6741V27.0588H25.9682V24.7059ZM28.3211 37.6471C27.0237 37.6471 25.9682 36.5915 25.9682 35.2941V29.4118H30.6741V35.2941C30.6741 36.5915 29.6185 37.6471 28.3211 37.6471Z" fill="#3359A4"/>
<path d="M15.2648 0.354736L13.1424 1.37074L16.4706 8.32281L9.49773 30.2376L2.52486 8.32281L5.85302 1.37074L3.73067 0.354736L0 8.14776L6.83059 29.6154C3.44392 28.6489 0.0859608 31.2086 0.0859608 34.7059C0.0859608 37.6251 2.46086 40 5.38008 40C7.0418 40 8.52643 39.2298 9.49773 38.0283C10.469 39.2298 11.9536 40 13.6154 40C16.5346 40 18.9095 37.6251 18.9095 34.7059C18.9095 31.2114 15.5547 28.6479 12.1648 29.6154L18.9955 8.14783L15.2648 0.354736ZM5.38008 37.647C3.75827 37.647 2.4389 36.3277 2.4389 34.7059C2.4389 33.0841 3.75827 31.7647 5.38008 31.7647C6.58667 31.7647 7.62533 32.4953 8.07835 33.537L8.25992 34.1076C8.3 34.3009 8.32126 34.5009 8.32126 34.7059C8.32126 36.3277 7.00188 37.647 5.38008 37.647ZM13.6154 31.7647C15.2372 31.7647 16.5566 33.0841 16.5566 34.7059C16.5566 36.3277 15.2372 37.647 13.6154 37.647C11.7604 37.647 10.3558 35.9376 10.7355 34.1076L10.917 33.5371C11.37 32.4953 12.4088 31.7647 13.6154 31.7647Z" fill="#3359A4"/>
</svg>
