<svg width="50" height="50" viewBox="0 0 50 50" fill="none" xmlns="http://www.w3.org/2000/svg">
<path d="M45.9429 35.1364C46.6545 34.2023 47.0781 33.0376 47.0781 31.7754C47.0781 28.7107 44.5848 26.2174 41.52 26.2174C38.4553 26.2174 35.962 28.7107 35.962 31.7754C35.962 33.0283 36.3791 34.1855 37.0813 35.1161C36.2526 35.6366 35.5073 36.2959 34.8918 37.0678C34.784 37.203 34.682 37.3422 34.5831 37.4831L29.0935 33.766C29.1723 33.4444 29.2149 33.1088 29.2149 32.7633C29.2149 30.954 28.0689 29.4077 26.4648 28.8112V23.7789H33.5282V18.1006C33.5282 15.2181 31.9165 12.4955 29.4711 10.9308C30.1827 9.99668 30.6063 8.83193 30.6063 7.56973C30.6063 4.50508 28.113 2.01172 25.0482 2.01172C21.9835 2.01172 19.4902 4.50508 19.4902 7.56973C19.4902 8.82266 19.9073 9.97979 20.6096 10.9104C19.7809 11.431 19.0355 12.0902 18.42 12.8621C17.2259 14.3595 16.5684 16.2199 16.5684 18.1007V23.779H23.5352V28.8113C21.9311 29.4078 20.7851 30.9541 20.7851 32.7634C20.7851 33.1075 20.8274 33.4419 20.9057 33.7623L15.3804 37.4962C14.7199 36.5676 13.8775 35.7604 12.9027 35.1366C13.6144 34.2025 14.038 33.0378 14.038 31.7756C14.038 28.7109 11.5446 26.2176 8.47998 26.2176C5.41533 26.2176 2.92188 28.7107 2.92188 31.7754C2.92188 33.0283 3.33896 34.1855 4.04121 35.1161C3.2125 35.6366 2.46719 36.2959 1.85166 37.0678C0.657617 38.5651 0 40.4256 0 42.3063V47.9847H16.9599V42.3063C16.9599 41.5771 16.8555 40.8586 16.6618 40.166L22.548 36.1884C23.2394 36.6848 24.0858 36.9783 25 36.9783C25.9128 36.9783 26.7581 36.6857 27.4489 36.1906L33.3249 40.1693C33.138 40.8659 33.0402 41.5846 33.0402 42.3064V47.9848H50V42.3064C50 39.4238 48.3883 36.7013 45.9429 35.1364ZM25.0483 4.94131C26.4976 4.94131 27.6768 6.12041 27.6768 7.56963C27.6768 9.01885 26.4977 10.1979 25.0483 10.1979C23.599 10.1979 22.42 9.01885 22.42 7.56963C22.42 6.12041 23.599 4.94131 25.0483 4.94131ZM19.498 18.1006C19.498 15.7722 21.0702 13.6285 23.2944 12.8425C23.8462 13.0265 24.4355 13.1276 25.0483 13.1276C25.6569 13.1276 26.2424 13.0279 26.7909 12.8463C29.0221 13.6713 30.5985 15.8129 30.5985 18.1005V20.8491H19.498V18.1006ZM8.47988 29.1471C9.9291 29.1471 11.1082 30.3262 11.1082 31.7754C11.1082 33.2246 9.9291 34.4037 8.47988 34.4037C7.03066 34.4037 5.85156 33.2247 5.85156 31.7754C5.85156 30.3261 7.03066 29.1471 8.47988 29.1471ZM14.0302 45.055H2.92969V42.3063C2.92969 39.9779 4.50186 37.8343 6.72607 37.0482C7.27783 37.2322 7.86719 37.3334 8.47998 37.3334C9.08857 37.3334 9.67402 37.2337 10.2226 37.0521C12.4538 37.8771 14.0302 40.0187 14.0302 42.3063V45.055ZM25 34.0485C24.2913 34.0485 23.7147 33.472 23.7147 32.7633C23.7147 32.0546 24.2913 31.478 25 31.478C25.7087 31.478 26.2853 32.0546 26.2853 32.7633C26.2853 33.472 25.7087 34.0485 25 34.0485ZM41.52 29.1471C42.9693 29.1471 44.1484 30.3262 44.1484 31.7754C44.1484 33.2246 42.9693 34.4037 41.52 34.4037C40.0707 34.4037 38.8917 33.2246 38.8917 31.7754C38.8917 30.3262 40.0707 29.1471 41.52 29.1471ZM47.0703 45.055H35.9698V42.3063C35.9698 39.9779 37.542 37.8343 39.7661 37.0482C40.3179 37.2322 40.9071 37.3334 41.52 37.3334C42.1286 37.3334 42.7142 37.2337 43.2626 37.0521C45.4938 37.8771 47.0702 40.0187 47.0702 42.3063V45.055H47.0703Z" fill="#3359A4"/>
</svg>
