<svg width="50" height="50" viewBox="0 0 50 50" fill="none" xmlns="http://www.w3.org/2000/svg">
<path d="M42.6777 7.32227C37.9558 2.60049 31.6777 0 25 0C18.3223 0 12.0442 2.60049 7.32227 7.32227C2.60049 12.0442 0 18.3223 0 25C0 31.6777 2.60049 37.9558 7.32227 42.6777C12.0442 47.3995 18.3223 50 25 50C31.6777 50 37.9558 47.3995 42.6777 42.6777C47.3995 37.9558 50 31.6777 50 25C50 18.3223 47.3995 12.0442 42.6777 7.32227ZM2.92969 25C2.92969 19.1048 5.22539 13.5625 9.39395 9.39395C13.5625 5.22539 19.1048 2.92969 25 2.92969C30.4042 2.92969 35.5109 4.86016 39.5356 8.39277L34.6425 13.2859H6.51416V36.714H11.2145L8.39287 39.5355C4.86016 35.5109 2.92969 30.4042 2.92969 25ZM28.4289 25C28.4289 26.8907 26.8907 28.4289 25 28.4289C24.5944 28.4289 24.2053 28.3577 23.8438 28.2278L28.2277 23.8438C28.3576 24.2053 28.4289 24.5944 28.4289 25ZM21.5711 25C21.5711 23.1093 23.1093 21.5711 25 21.5711C25.4056 21.5711 25.7947 21.6423 26.1562 21.7722L21.7723 26.1562C21.6424 25.7947 21.5711 25.4056 21.5711 25ZM28.3376 19.5908C27.3668 18.9896 26.2234 18.6414 25 18.6414C21.4938 18.6414 18.6414 21.4938 18.6414 25C18.6414 26.2234 18.9896 27.3668 19.5908 28.3376L15.548 32.3804C14.5557 29.7703 12.2513 27.8018 9.44385 27.2866V22.7133C12.7357 22.1093 15.3375 19.5076 15.9415 16.2156H31.7129L28.3376 19.5908ZM9.44385 19.7036V16.2156H12.9317C12.4362 17.8879 11.116 19.2081 9.44385 19.7036ZM9.44385 30.2964C11.116 30.7919 12.4363 32.1121 12.9317 33.7844H9.44385V30.2964ZM21.6624 30.4092C22.6332 31.0105 23.7766 31.3586 25 31.3586C28.5062 31.3586 31.3586 28.5062 31.3586 25C31.3586 23.7766 31.0105 22.6332 30.4092 21.6624L34.452 17.6196C35.4443 20.2297 37.7487 22.1982 40.5562 22.7134V27.2867C37.2643 27.8907 34.6625 30.4924 34.0585 33.7844H18.2872L21.6624 30.4092ZM40.5562 30.2964V33.7844H37.0683C37.5638 32.1121 38.884 30.7919 40.5562 30.2964ZM40.5562 19.7036C38.884 19.2081 37.5637 17.8879 37.0683 16.2156H40.5562V19.7036ZM40.6061 40.6061C36.4375 44.7746 30.8952 47.0703 25 47.0703C19.5958 47.0703 14.4891 45.1398 10.4644 41.6072L15.3575 36.7141H43.4858V13.2859H38.7855L41.6071 10.4644C45.1398 14.4891 47.0703 19.5958 47.0703 25C47.0703 30.8952 44.7746 36.4375 40.6061 40.6061Z" fill="#3359A4"/>
</svg>
