<svg width="50" height="50" viewBox="0 0 50 50" fill="none" xmlns="http://www.w3.org/2000/svg">
<g clip-path="url(#clip0_2097_1086)">
<path d="M47.0588 47.0588V14.7059H38.2353V0H11.7647V14.7059H2.94118V47.0588H0V50H50V47.0588H47.0588ZM5.88235 47.0588V17.6471H11.7647V47.0588H5.88235ZM20.5882 47.0588V32.3529H23.5294V47.0588H20.5882ZM26.4706 47.0588V32.3529H29.4118V47.0588H26.4706ZM32.3529 47.0588V29.4118H17.6471V47.0588H14.7059V14.7059V2.94118H35.2941V14.7059V47.0588H32.3529ZM38.2353 47.0588V17.6471H44.1176V47.0588H38.2353Z" fill="#3359A4"/>
<path d="M23.5271 14.7073H26.4683V11.7661H29.4095V8.82497H26.4683V5.88379H23.5271V8.82497H20.5859V11.7661H23.5271V14.7073Z" fill="#3359A4"/>
<path d="M17.6465 17.6465H32.3524V20.5877H17.6465V17.6465Z" fill="#3359A4"/>
<path d="M17.6465 23.5303H32.3524V26.4715H17.6465V23.5303Z" fill="#3359A4"/>
</g>
<defs>
<clipPath id="clip0_2097_1086">
<rect width="50" height="50" fill="white"/>
</clipPath>
</defs>
</svg>
